<?xml version="1.0" encoding="UTF-8" standalone="no"?>
<svg
    role="img"
    xmlns="http://www.w3.org/2000/svg"
    width="1000mm"
    height="1000mm"
    viewBox="0 0 1000 1000"
    style="max-width:1.6em; height: auto;">

    <path
        id="path"
        style="opacity:1;vector-effect:none;fill:#fff;fill-opacity:1;"
        d=" M 675 650C 675 650 775 650 775 650C 789 650 800 661 800 675C 800 675 800 775 800 775C 800 789 789 800 775 800C 775 800 675 800 675 800C 661 800 650 789 650 775C 650 775 650 675 650 675C 650 661 661 650 675 650C 675 650 675 650 675 650M 450 650C 450 650 550 650 550 650C 564 650 575 661 575 675C 575 675 575 775 575 775C 575 789 564 800 550 800C 550 800 450 800 450 800C 436 800 425 789 425 775C 425 775 425 675 425 675C 425 661 436 650 450 650C 450 650 450 650 450 650M 225 650C 225 650 325 650 325 650C 339 650 350 661 350 675C 350 675 350 775 350 775C 350 789 339 800 325 800C 325 800 225 800 225 800C 211 800 200 789 200 775C 200 775 200 675 200 675C 200 661 211 650 225 650C 225 650 225 650 225 650M 675 425C 675 425 775 425 775 425C 789 425 800 436 800 450C 800 450 800 550 800 550C 800 564 789 575 775 575C 775 575 675 575 675 575C 661 575 650 564 650 550C 650 550 650 450 650 450C 650 436 661 425 675 425C 675 425 675 425 675 425M 450 425C 450 425 550 425 550 425C 564 425 575 436 575 450C 575 450 575 550 575 550C 575 564 564 575 550 575C 550 575 450 575 450 575C 436 575 425 564 425 550C 425 550 425 450 425 450C 425 436 436 425 450 425C 450 425 450 425 450 425M 225 425C 225 425 325 425 325 425C 339 425 350 436 350 450C 350 450 350 550 350 550C 350 564 339 575 325 575C 325 575 225 575 225 575C 211 575 200 564 200 550C 200 550 200 450 200 450C 200 436 211 425 225 425C 225 425 225 425 225 425M 125 325C 125 325 125 825 125 825C 125 853 147 875 175 875C 175 875 825 875 825 875C 853 875 875 853 875 825C 875 825 875 325 875 325C 875 325 125 325 125 325M 175 175C 147 175 125 197 125 225C 125 225 125 275 125 275C 125 275 875 275 875 275C 875 275 875 225 875 225C 875 197 853 175 825 175C 825 175 654 175 654 175C 651 175 649 175 646 175C 646 175 354 175 354 175C 351 175 349 175 346 175C 346 175 175 175 175 175M 350 50C 356 50 363 52 368 57C 372 62 375 68 375 75C 375 75 375 125 375 125C 375 125 625 125 625 125C 625 125 625 75 625 75C 625 61 636 50 650 50C 656 50 663 52 668 57C 672 62 675 68 675 75C 675 75 675 125 675 125C 675 125 825 125 825 125C 880 125 925 170 925 225C 925 225 925 825 925 825C 925 880 880 925 825 925C 825 925 175 925 175 925C 120 925 75 880 75 825C 75 825 75 225 75 225C 75 170 120 125 175 125C 175 125 325 125 325 125C 325 125 325 75 325 75C 325 61 336 50 350 50C 350 50 350 50 350 50"
        transform="">
    </path>
</svg>